<svg width="17" height="17" viewBox="0 0 17 17" fill="none" xmlns="http://www.w3.org/2000/svg">
<g id="Group 6">
<path id="Vector (Stroke)" fill-rule="evenodd" clip-rule="evenodd" d="M12.7706 5.15621C13.0425 5.39303 13.0777 5.81355 12.8494 6.09547L7.44938 12.7621C7.3297 12.9099 7.15416 12.9966 6.96812 12.9999C6.78208 13.0032 6.60378 12.9227 6.47931 12.7793L4.16503 10.1126C3.92752 9.83898 3.94891 9.41745 4.21281 9.17114C4.47671 8.92484 4.88318 8.94702 5.12069 9.2207L6.94041 11.3175L11.8649 5.23789C12.0933 4.95596 12.4988 4.9194 12.7706 5.15621Z" fill="white"/>
<path id="Vector (Stroke)_2" fill-rule="evenodd" clip-rule="evenodd" d="M2.61538 1.30769C1.89317 1.30769 1.30769 1.89317 1.30769 2.61538V14.3846C1.30769 15.1068 1.89317 15.6923 2.61538 15.6923H14.3846C15.1068 15.6923 15.6923 15.1068 15.6923 14.3846V2.61538C15.6923 1.89317 15.1068 1.30769 14.3846 1.30769H2.61538ZM0 2.61538C0 1.17095 1.17095 0 2.61538 0H14.3846C15.8291 0 17 1.17095 17 2.61538V14.3846C17 15.8291 15.8291 17 14.3846 17H2.61538C1.17095 17 0 15.8291 0 14.3846V2.61538Z" fill="white"/>
</g>
</svg>
