            <svg xmlns="http://www.w3.org/2000/svg" width="268" height="142" fill="none"><g clip-path="url(#a)"><path fill="#fff" d="M245.4 109.5c-1.7-.6-3.5-.7-5.2-.7-4.5 0-9 .3-13.4 1-4.7.7-9.5 1.9-13.3 4.8-3.7 3-6.1 8-4.7 12.6.2.9.7 1.7 1.3 2.4a8.5 8.5 0 0 0 4.4 2.3c4.2 1 8.6 1.1 13 1a158 158 0 0 0 32.2-2.8c1.6-.4 3.2-.8 4.6-1.5a6 6 0 0 0 3-3.6 6 6 0 0 0-1.1-5c-1-1.5-2.6-2.6-4-3.5-5.6-3.5-12-5.4-16.8-7ZM33.3 5.7c.3 31.6.2 63.3-.7 94.8-8.5 7.9-16.9 16-25 24.3-.4.5-.9 1-1 1.7-.2.5-.1 1.1 0 1.7.4 3.6.8 7.2 1.4 10.8 62.7.2 125.4-2 188.2-6 2.1-4 3.6-8.4 4.3-13.3a959.8 959.8 0 0 0-37.4-28c.8-4.6 2-9.1 3.4-13.5 11.9.1 23.8.3 35.5-1.7s23.3-6.3 32.3-14.1c3.9-3.4 7.5-8.3 6.5-13.5-.8-4.5-5-7.6-9-9.8-18-9.4-39.7-8.9-59.5-4.5l4.9-31.8c-48 1.2-95.9 3-143.9 2.9Z"/><path fill="#A7DEDB" d="M57 94.2c-3.4-5.2-1.6-12.8 3.4-16.5 2.4-1.9 5.4-2.8 8.3-3.8 9-2.9 18-5.8 27.4-6.7 9.4-1 19.3.3 27.3 5.1 1.7 1 3.3 2.2 4.3 3.9.8 1.5 1 3.1 1.3 4.8a35 35 0 0 1 .7 11.2c-24.5-.4-49 .6-73.2 2.9 0-.5 0-1 .5-.9Z"/><path fill="#FAB99C" d="M77.5 30.5a11 11 0 0 0-8.7-.6 11 11 0 0 0-6.5 6c-.8 1.8-1.1 4 0 5.6 1.4 2 4.3 2.3 6.8 2.1 8.4-.6 16.5-3.8 23.5-8.5-.6 1 0 2.4.9 3.2a5 5 0 0 0 3.4.8c4.1-.1 7.8-2.6 11.2-4.9.3 2.5 2.5 4.6 4.9 5.4 2.4.8 5 .4 7.5-.3a9 9 0 0 0 4.5-2.7c1-1.4 1.4-3.5.4-5-.8-1-2.1-1.5-3.4-1.5a13 13 0 0 0-3.8.6c.8-1.3.3-3.2-1-4.2a7 7 0 0 0-4.4-1.4 15 15 0 0 0-11.6 5c-2.3-3.6-7.2-5-11.4-4.3-4.3.7-8.1 3-12.3 4.7Z"/><path stroke="#333" stroke-linecap="round" stroke-linejoin="round" stroke-width="2" d="M151.3 61.3 137 72.7l14.4-2.9c.7 0 1.4-.2 2.1 0 .7 0 1.2.4 1.8.8a48 48 0 0 0 27.8 5.7c11.8-.5 23.5-2.6 34.6-6.7a46.1 46.1 0 0 0 17.1-10c3.1-3.1 5.6-7.3 5-11.7a12 12 0 0 0-4.4-7.4c-2.3-2-5-3.1-7.9-4-7.7-2.7-16-3.4-24.1-3.8a97 97 0 0 0-43 5.8c-4 1.7-8 4.1-9.8 8-2.2 4.7-.8 10.2.8 14.8v0Z"/><path stroke="#333" stroke-linecap="round" stroke-linejoin="round" stroke-width="2" d="M164 43.2c-1.5 6.4-2.7 12.8-3.6 19.3m-5.8-7.8 18.3-3.3m2.7-9.7a362 362 0 0 1-5 18.6m4.8-4.7a20 20 0 0 0 10.8-5.3c.8-.8 1.6-2 1-3-.5-.6-1.4-.8-2.1-.5-.8.3-1.3.9-1.8 1.5a9.4 9.4 0 0 0-2 3.9c-.4 1.4 0 3.1 1 4.1 1.1 1 3 1.1 4 0m4.4.4a18 18 0 0 0 7.9-14.6c0-.8-.3-1.8-1-1.9-.6 0-1 .5-1.2 1-.7 1.3-1 2.8-1.2 4.2-.3 2.2-.5 4.4-.5 6.6 0 2.1.4 4.7 2.3 5.7 1.2.6 2.7.4 3.9-.3 1.2-.6 2-1.7 2.8-2.8a35 35 0 0 0 4.2-8.2c.6-1.5 1-3 1-4.6 0-.6 0-1.3-.6-1.6-.5-.4-1.2-.3-1.7 0-.5.4-.8 1-1 1.6a22 22 0 0 0-2.3 9.4c0 1.3.1 2.7 1 3.6 1.4 1.3 3.7.8 5.3-.1m6.7-8.3c-1.3 2-2.6 4.1-2.2 6.5.1.4.3.9.6 1.2.6.6 1.6.7 2.4.4.8-.4 1.5-1 2-1.7.7-.8 1.3-1.7 1.6-2.7.3-1 .2-2.2-.6-3a7 7 0 0 0 6.3-1m-125-16.8a16.6 16.6 0 0 0-12-3.4c-4.1.5-8.1 2.7-10.8 6a8.2 8.2 0 0 0-8.2-2.7c-3 .6-5.5 2.7-7.2 5.2-1.6 2.3-2.5 5.7-.6 7.8.8.9 2 1.3 3.1 1.6 3.4.7 7-.2 10.2-1.3 6-2.1 11.8-4.8 17.3-8.1-1.4 1.4-.1 4 1.7 4.6 1.9.7 4 0 5.8-.8 3-1.3 6-2.9 8.8-4.7 0 3 2.6 5.6 5.5 6.1 3 .6 6-.6 8.3-2.4 1.5-1 2.8-2.7 2.4-4.5-.3-1.2-1.5-2.1-2.8-2.4-1.2-.3-2.5 0-3.8.4.8-1.6-.2-3.7-1.7-4.6-1.6-1-3.5-1-5.3-.9-4 .4-7.7 2-10.7 4.1h0Zm-6.6 14.3c-1.7-1.4-4.3-1.3-6.5-.8-1.6.4-3.2 1-4.5 1.9a6.7 6.7 0 0 0-2.8 4 3 3 0 0 0 .4 2.4 3 3 0 0 0 2 1c2.2.4 4.5-.6 6.6-1.6 2.1-1.2 4.4-2.7 5-5v-1.2c-.1-.3-.5-.6-.2-.8v0Zm15.5-.8c-.8-1-2.3-1.3-3.6-1.3-2.5 0-5 .6-7.2 1.8-1 .5-2 1.2-2.7 2.1-.7 1-1 2.2-.6 3.3.6 1.4 2.2 2.1 3.7 2.4a10.2 10.2 0 0 0 10.5-5.2c.3-1 .5-2.3-.1-3.1h0Zm-15.5 9c-.8 0-1.6 0-2.3.4a4 4 0 0 0-1.9 2.5c-.1.7-.2 1.3 0 2 .2.6.7 1.2 1.3 1.5m-2.4 6.2c5.7-.3 11.3-3.3 14.8-7.8"/><path stroke="#333" stroke-linecap="round" stroke-linejoin="round" stroke-width="2" d="M79.8 41.4c-.5 2.1-.9 4.4-1.1 6.6a5 5 0 0 0-5-.2 8.4 8.4 0 0 0-3.4 3.9 11.8 11.8 0 0 0-1 7.9c.4 1.2 1 2.4 2.1 3 .8.3 1.8.2 2.6-.2.8-.3 1.5-.9 2.1-1.4 1.5-1.3 2.8-2.8 3.9-4.3a367 367 0 0 1-1 13.6M59.1 94.7c.4-3.2-.2-6.3-.2-9.5s.5-6.6 2.6-9c1.9-2 4.7-3 7.4-3.7 5-1.2 10.3-1.5 15.5-1.8a447.2 447.2 0 0 1 39.2.5c1.7.1 3.6.6 4.5 2 .4.7.5 1.4.7 2.2a40 40 0 0 1-2.4 16.6"/><path stroke="#333" stroke-linecap="round" stroke-linejoin="round" stroke-width="2" d="M39.3 16.7c.7 26.1 1.5 52.3 3 78.3 36.3.3 72.7-1 108.9-3.6m4.1-20.1-2.3 18c-.1.6-.2 1.1-.5 1.6-.3.4-.8.7-1.3.5"/><path stroke="#333" stroke-linecap="round" stroke-linejoin="round" stroke-width="2" d="M39.2 17.1c40.7-2.4 81.4-3.9 122-3.9l-1.8 26"/><path stroke="#333" stroke-linecap="round" stroke-linejoin="round" stroke-width="2" d="M30.7 97.4c-.1-30.7-.3-61.5 0-91.7C78 3.3 125.4 1.7 173.4 1a876.6 876.6 0 0 0-3.9 34.3m-5.8 39.6a482 482 0 0 0-2.5 16.9M28 101.5a313 313 0 0 0-27 25.8L5.5 140c61.6.5 123.2-1.4 184.6-5.8.8 0 1.7-.1 2.4-.6.8-.7 1.1-1.7 1.3-2.7 1-3.7 2-7.3 2.8-11m-35.4-28.2 31.5 24.6"/><path stroke="#333" stroke-linecap="round" stroke-linejoin="round" stroke-width="2" d="M115 39.2c0 2.8-.3 5.6-.8 8.3 1.9-2 4.7-3.1 7.4-3 1 0 2.2.3 2.9 1.1.7 1 .6 2.2.5 3.4-.2 1.8-.5 3.7-1.4 5.4-.9 1.6-2.5 3-4.3 3.1a7 7 0 0 1-2.8-.4 17 17 0 0 1-4.3-2l-1.4 10.2m-69.3 39.6c36-1.9 72-4.2 108-6.8M29.5 112c43.8-2 87.7-4.8 131.5-8.3M26 123.5c48-1.5 96-3.4 144-5.7"/><path stroke="#333" stroke-linecap="round" stroke-linejoin="round" stroke-width="2" d="M41.8 105.1a502.5 502.5 0 0 0-17 18.7m31.4-19.2-11 15.5m26.6-13.9c-2.6 5.6-5.4 11.1-8.3 16.6m25.2-22.9c-2 7.2-4 14.5-5.6 21.9m18.2-17.3.5 16m11.9-18.2c2.5 6 5.3 12 8.3 17.8m7-18.2 10.2 16.6m1.7-19.7a608 608 0 0 1 10.8 17m1.6-16.4 12 15m90.6-1.4a38.2 38.2 0 0 0-17-4.3 69.7 69.7 0 0 0-25.8 4.6 12.2 12.2 0 0 0-5.8 6.3c-.6 1.6-.7 3.4-.7 5.1 0 1.7.3 3.5 1.3 4.8 1.3 1.6 3.5 2.1 5.5 2.5 14.6 2.4 29.7 2 44.2-1 3-.5 6.4-1.5 7.7-4.3.8-1.8.6-4-.4-5.7-.8-1.7-2.3-3-3.8-4.2a49 49 0 0 0-5.2-3.8h0Z"/><path stroke="#333" stroke-linecap="round" stroke-linejoin="round" stroke-width="2" d="M239.7 109.4a104.2 104.2 0 0 0-19.9 23.1m-8.1-13 13.3.8c1.1 0 2.2.1 3.3-.2M60.4 78.4c22.5-1.2 45-2.3 67.5-3.2m-71.5 9.7 72.4-3M62.2 91c20.4-2.4 41.3-.5 61.7-3.9"/></g><defs><clipPath id="a"><path fill="#fff" d="M0 0h267.5v141.1H0z"/></clipPath></defs></svg>