<svg xmlns="http://www.w3.org/2000/svg" width="17" height="18" fill="none">
  <g fill="#fff" fill-rule="evenodd" clip-rule="evenodd">
    <path d="M2.6 2.6c.3 0 .6.2.7.6L4 16c0 .4.3.7.6.7H12c.3 0 .6-.2.6-.7l.8-12.8a.6.6 0 1 1 1.3 0l-.7 13a2 2 0 0 1-2 1.9H4.8a2 2 0 0 1-2-2L2 3.4c0-.4.2-.7.6-.7Z"/>
    <path d="M.7 3.2c0-.3.3-.6.6-.6h14.1a.6.6 0 0 1 0 1.3h-14a.6.6 0 0 1-.7-.7Z"/>
    <path d="M6.8 1.3a.3.3 0 0 0-.3.3v1.6a.6.6 0 1 1-1.3 0V1.6A1.6 1.6 0 0 1 6.8 0H10a1.6 1.6 0 0 1 1.6 1.6v1.6a.6.6 0 1 1-1.3 0V1.6a.3.3 0 0 0-.2-.3H6.8ZM5.5 5.2c.3 0 .6.2.6.6l.4 9a.6.6 0 0 1-1.3 0l-.3-9c0-.3.2-.6.6-.6Zm5.8 0c.3 0 .6.3.6.6l-.3 9a.6.6 0 0 1-1.3 0l.3-9c0-.4.3-.7.7-.6Zm-3 0c.4 0 .7.2.7.6v9a.6.6 0 1 1-1.3 0v-9c0-.4.3-.6.7-.6Z"/>
  </g>
</svg>
