<svg xmlns="http://www.w3.org/2000/svg" width="22" height="24" fill="none">
  <g fill="#fff">
    <path fill-rule="evenodd" d="M2.9 6.7A1.2 1.2 0 0 0 1.6 8v12.3A1.2 1.2 0 0 0 3 21.6h12.4a1.2 1.2 0 0 0 1.2-1.3V11a.8.8 0 0 1 1.6 0v9.4a2.9 2.9 0 0 1-2.8 3H2.9a2.9 2.9 0 0 1-2.9-3V8a2.9 2.9 0 0 1 2.9-3h8.6a.8.8 0 0 1 0 1.7H3Z" clip-rule="evenodd"/>
    <mask id="a">
      <path d="m21.7.4-.4-.3a1 1 0 0 0-1.3.3l-.8.9-.2.4c0 .2 0 .3.2.5l.8.8a.6.6 0 0 0 .4.2.5.5 0 0 0 .4-.2l.8-.9c.5-.5.5-1.2.1-1.7Zm-4.3 2.8L4.4 17l-.1.3-.6 1.9a.3.3 0 0 0 0 .3H4l1.8-.6c.1 0 .2 0 .3-.2L19 5l.2-.4c0-.2 0-.4-.2-.5l-.7-.8a.6.6 0 0 0-.5-.2c-.1 0-.3 0-.4.2Z"/>
    </mask>
    <path d="m21.7.4-.4-.3a1 1 0 0 0-1.3.3l-.8.9-.2.4c0 .2 0 .3.2.5l.8.8a.6.6 0 0 0 .4.2.5.5 0 0 0 .4-.2l.8-.9c.5-.5.5-1.2.1-1.7Zm-4.3 2.8L4.4 17l-.1.3-.6 1.9a.3.3 0 0 0 0 .3H4l1.8-.6c.1 0 .2 0 .3-.2L19 5l.2-.4c0-.2 0-.4-.2-.5l-.7-.8a.6.6 0 0 0-.5-.2c-.1 0-.3 0-.4.2Z"/>
    <path d="M21.7.4 5.7 14 21.8.5ZM20 .4l15.3 14.4L20 .3Zm-.8.9L3.9-13.1 19.1 1.3Zm0 .9L3.8 16.5 19.3 2.2Zm.8.8 15.3-14.3L20 3Zm.8 0L5.5-11.4v.1L20.7 3Zm.8-.9L37 16.5 21.7 2Zm-4.2 1.1L2-11.2 17.4 3.2ZM4.4 17l15.3 14.4L4.4 17Zm-.1.3 20 6.3.2-.5v-.5L4.4 17.3Zm-.6 1.9-20-6.3-.2.3v.3l20.2 5.7Zm.3.3 6.4 20h.3l.4-.2-7-19.8Zm1.8-.6-6-20.1-.6.2-.5.1L5.8 19Zm.3-.2L-9.2 4.4 6 18.7ZM19 5l15.3 14.4L19 4.8Zm0-1 15.4-14.2L19 4Zm-.7-.7L33.6-11 18.3 3.1Zm-.5-.2v-21V3Zm19.9-16.2c-2-2.3-4.4-4.2-7.2-5.6L12.1 19a21 21 0 0 1-6.4-5l32-27.2Zm-7.2-5.6a22 22 0 0 0-9-2.2l-1.2 42a20 20 0 0 1-8.2-2l18.4-37.8Zm-9-2.2a22 22 0 0 0-9.3 1.8l16.5 38.6a20 20 0 0 1-8.4 1.6l1.1-42Zm-9.3 1.8a22 22 0 0 0-7.5 5.2l30.6 28.7c-1.8 2-4 3.6-6.6 4.7L12.2-19.2ZM4.8-14l-1 .9 30.6 28.8 1-1L4.7-14Zm-1 1A21.6 21.6 0 0 0-2 1.6h42c0 5-1.9 10-5.5 14L3.8-13.1ZM-2 1.6a22 22 0 0 0 5.8 14.9l30.7-28.7c3.6 4 5.5 9 5.5 14H-2Zm5.9 14.8.8.9 30.6-28.7-.8-1-30.6 29Zm.7.9c2 2 4.3 3.8 7 5l17-38.4c2.6 1.1 4.9 2.7 6.7 4.7L4.6 17.4Zm7 5a22 22 0 0 0 8.8 1.8v-42c2.9 0 5.7.6 8.3 1.8l-17 38.4Zm8.8 1.8c3 0 6-.6 8.7-1.8L12.1-16c2.6-1.2 5.4-1.8 8.3-1.8v42Zm8.7-1.8c2.7-1.2 5.1-3 7-5L5.4-11.3c1.9-2 4.1-3.6 6.7-4.7l17 38.4Zm7-5 .8-.9L6.4-12.3l-.9 1 30.6 28.7Zm.9-1c7.3-7.7 8.5-20.5.7-29.7L5.7 14c-7-8.2-5.8-19.5.6-26.4L37 16.5ZM2-11.1-10.8 2.6l30.6 28.7 13-13.7L2-11.2ZM-10.7 2.6a21 21 0 0 0-5.2 9.3l40.6 10.7c-.9 3.2-2.5 6.2-4.9 8.8L-10.8 2.6Zm-5 8.4-.6 1.9 40.1 12.6.6-2-40-12.5Zm-.8 2.5c-1 3.5-1 7.2-.2 10.7l40.9-9.7c.8 3.4.7 7-.2 10.3l-40.5-11.3Zm-.2 10.7a22 22 0 0 0 5.2 9.6L19.1 5.1a21 21 0 0 1 5 9.4l-40.9 9.7Zm5.2 9.6c2.6 2.8 6 5 10 6L9.4-.7c3.8 1 7.1 3 9.7 5.8l-30.7 28.7Zm10 6c4 1 8 1 12-.2L-2.3-.4C1.5-1.8 5.5-1.9 9.4-.8l-11 40.5Zm12.7-.5 1.8-.6L-1.3-1-3-.2l14.2 39.5Zm.8-.3c3.7-1.1 7-3.2 9.5-6L-9.3 4.5C-6.9 2-3.8 0-.3-1.1L12 39Zm9.5-6 13-13.7L3.6-9.4l-13 13.8L21.5 33Zm13-13.8c3.8-4.1 5.8-9.4 5.8-14.7h-42c0-5 1.8-10 5.4-13.8l30.8 28.5Zm5.8-14.7a22 22 0 0 0-5.8-14.8L3.6 18.3A20.3 20.3 0 0 1-1.8 4.5h42Zm-5.9-14.9-.7-.7L3 17.5l.7.8 30.7-28.7Zm-.7-.8c-4-4.2-9.6-6.8-15.8-6.8v42C12 24 6.7 21.5 3 17.6l30.6-28.8ZM17.8-18C11.6-18 6-15.4 2.1-11.2l30.6 28.8c-3.7 4-9 6.4-14.9 6.4v-42Z" mask="url(#a)"/>
  </g>
</svg>
