<svg xmlns="http://www.w3.org/2000/svg" width="137" height="32" fill="none"><g fill="#FFF7F7" clip-path="url(#a)"><path d="m31.7 31.9-6.4-13.3c0-.6-.6-2.2-.7-2.5l-3.4-6.7a.6.6 0 0 0-.7-.3l-.3.1c-.3.2-.4.6-.3.8l3.4 6.8c.2.2 1.1 1.7 1.6 2L31.5 32l.2-.1Zm-7.5-15c-.2.1-.7-.9-.8-1l-2.7-5.5v-.3h.1c.1-.1.3 0 .3.1l2.8 5.4c0 .2.4 1.2.3 1.3Z"/><path d="m18.7 19.2-.3.2a11.5 11.5 0 0 1-7.5 2.3c-5.3-.3-8.4-5-7-10.1 1.6-5.4 7-8.7 12-10.3C22.3-.6 31.5-1 36.7 4a10.2 10.2 0 0 1-.6 15 13.5 13.5 0 0 1-5 2.4c-1.4.4-3.1.8-4.7.4l-.9-.3a.6.6 0 0 1-.3-.8c.2-.3.5-.4.8-.2l.5.1c1.7.5 3.3 0 5-.5 2.1-.7 4.2-2 5.5-3.8a9.7 9.7 0 0 0 1.4-7.2 8.3 8.3 0 0 0-2.5-4.3C31 0 22.4.6 16.3 2.4 10.9 4 4.4 8 4.6 14.4c0 2.4 1.6 4.8 4 5.7 1.5.7 3.2.7 4.9.4 1.6-.3 3.2-1 4.5-2 .5-.5 1.1.2.7.7Z"/><path d="M.4 20.3a6 6 0 0 1 6.1 1.2c1.1 1.1 1.8 2.5 2.6 4l.2.4.4.6a7 7 0 0 0 4.8 3 8 8 0 0 0 4.1-.6c4.6-2.2 3.8-8.9 3.9-13.2 0-3.7 1-7.6 4.2-9.8l.8-.2c.3 0 .5.3.5.6s-.2.6-.5.6h-.2c-.4.3-1.5 1.2-1.9 2-2.3 3.3-1.7 7.6-1.8 11.4-.2 3.7-.9 8-4.5 9.6-2 .9-4.4 1-6.3.3a8.5 8.5 0 0 1-4.3-3.6l-.2-.4-1.6-2.9a5 5 0 0 0-6-2c-.7.2-1-.8-.3-1Zm34.8 7.1c0-4 5-5.7 8.3-5.7.2 0 .2.2.2.3v5.7c0 1.1.2 2 1.4 2 1.6 0 2.6-1.6 3.3-3l.3-.5c.1-.2.3-.2.3-.2.2 0 .3.2.3.4v.1l-.2.5c-.8 1.5-2 3.4-4 3.4-1.5 0-2-1-2-2.6a5.2 5.2 0 0 1-4.4 2.6c-2.2 0-3.5-1.2-3.5-3Zm7.8-1.8v-3.2c-3.1.2-7.1 1.6-7.1 5 0 1.4 1 2.3 2.8 2.3 2.2 0 4.3-2 4.3-4.1Z"/><path d="M45.1 30.6c-1.3 0-2-.7-2.2-2.1a5.5 5.5 0 0 1-4.2 2.1c-2.3 0-3.7-1.2-3.7-3.2s1-3.5 3-4.5c1.5-.9 3.6-1.4 5.5-1.4.2 0 .4.1.4.5v5.7c0 1.3.4 1.8 1.2 1.8 1.4 0 2.4-1.4 3.1-2.8l.3-.6c.2-.3.4-.3.5-.3.3 0 .6.3.6.6v.2l-.3.5c-.9 1.6-2.2 3.5-4.2 3.5ZM43.3 27v.8c0 1.6.6 2.4 1.8 2.4 1.8 0 3-1.8 3.8-3.3l.2-.5v-.1h-.2l-.3.6c-.5 1-1.6 3-3.5 3-1.4 0-1.6-1.2-1.6-2.2V22c-3.4 0-8 1.6-8 5.4 0 1.7 1.2 2.8 3.2 2.8a5 5 0 0 0 4.1-2.5l.5-.7Zm-4.6 3c-1.9 0-3-1-3-2.6 0-1.5.8-3 2.5-3.9 1.3-.7 3-1.2 4.8-1.4h.3v3.5c0 2.2-2.2 4.3-4.6 4.3Zm4.1-7.4c-1.6.1-3.2.6-4.4 1.3-1.5.9-2.3 2-2.3 3.5 0 1.3 1 2.1 2.6 2.1 2.1 0 4.1-1.9 4.1-4v-2.9Z"/><path d="M51 27.8v-4l-1.7 2.7c0 .2-.2.2-.2.2-.2 0-.4-.1-.4-.3l.1-.3 2.1-3.6V20H49c-.2 0-.3-.1-.3-.3 0-.2.1-.3.3-.3h2v-5c0-.3 0-.4.2-.4s.4.1.4.3v5H55c.2 0 .4.2.4.4s-.2.3-.4.3h-3.5v7.7c0 1.1.2 2 1.4 2 1.5 0 2.8-2 3.3-3l.3-.5c.1-.2.2-.2.3-.2.2 0 .3.2.3.4v.1l-.3.5c-.9 1.5-2 3.4-3.9 3.4-1.5 0-2-1-2-2.6Z"/><path d="M53 30.6c-1.5 0-2.3-1-2.3-2.8v-3.1l-1.2 2-.4.2a.5.5 0 0 1-.6-.5l.1-.4 2.1-3.6v-2.1H49a.5.5 0 0 1-.5-.6c0-.3.2-.5.5-.5h1.7v-4.9c0-.3.2-.5.5-.5.4 0 .6.2.6.5v4.9H55c.3 0 .6.2.6.5s-.3.6-.6.6h-3.3v7.4c0 1.3.3 1.8 1.2 1.8 1.5 0 2.7-2.1 3-2.8l.4-.6c.2-.3.4-.3.5-.3.3 0 .5.3.5.6v.2l-.3.5c-1 1.6-2.1 3.5-4 3.5ZM51.1 23v4.8c0 1.6.7 2.4 2 2.4 1.6 0 2.7-1.9 3.6-3.3l.3-.5-.1-.1h-.1l-.3.6c-.8 1.3-2 3-3.5 3s-1.6-1.2-1.6-2.2v-7.9h3.8v-.2h-3.8v-5.3h-.2v5.3H49v.2h2.1v2.8l-2 3.6-.2.2h.2l2-3.4Z"/><path d="M56.5 26c0-2.5 2-4.3 4.5-4.3l1.7.2c.3 0 .4.2.4.3 0 .2-.2.4-.4.4s-.7-.2-1.7-.2c-2 0-3.8 1.5-3.8 3.6 0 2.5 1.8 3.7 4.3 3.7 2.6 0 4-1.7 5-3.3l.1-.2c.1-.2.3-.2.3-.2.2 0 .3.2.3.4v.2l-.2.3-.9 1.3a5.7 5.7 0 0 1-4.6 2.2c-3 0-5-1.5-5-4.3Z"/><path d="M61.5 30.6c-3.2 0-5.2-1.7-5.2-4.6 0-2.5 2-4.5 4.7-4.5l1.8.2c.4.1.5.4.5.5 0 .3-.3.6-.6.6a2 2 0 0 1-.3 0l-1.4-.2c-2 0-3.6 1.5-3.6 3.5 0 2.2 1.5 3.4 4.1 3.4 2 0 3.6-1 4.8-3.2l.1-.2c.1-.2.3-.3.5-.3.3 0 .5.3.5.6v.3l-.2.3c-.1.2-.4.7-1 1.3a6 6 0 0 1-4.7 2.3ZM61 22a4.2 4.2 0 0 0-4.3 4.1c0 2.7 1.8 4.2 4.8 4.2 1.8 0 3.2-.7 4.4-2.2l1-1.2v-.3l.1-.1-.1-.1h-.1l-.1.3c-1.3 2.2-3 3.3-5.2 3.3-2.8 0-4.5-1.4-4.5-3.9a4 4 0 0 1 4-3.9 6.7 6.7 0 0 1 1.7.2h.2l-.2-.2A7 7 0 0 0 61 22Z"/><path d="M68.7 30v-6l-1.5 2.5c0 .2-.2.2-.3.2-.2 0-.3-.1-.3-.3V26l2.1-3.5v-9.3c0-3 .7-4 1.9-4 1.5 0 1.9 2 1.9 3.6 0 3.4-2 7.9-3.1 10v2.3c1.3-1.6 2.9-3.5 5-3.5 2 0 2.1 1.6 2.1 2.4v3.6c0 1.1.2 2 1.4 2 1.6 0 2.8-2 3.3-3l.3-.5c.1-.2.3-.2.3-.2.2 0 .4.2.4.4v.1l-.3.5c-.9 1.4-2 3.4-4 3.4-1.5 0-2-1-2-2.6V24c0-1.1-.5-1.7-1.4-1.7-2.2 0-4 2.2-5.1 3.8V30c0 .2-.1.4-.3.4-.3 0-.4-.2-.4-.4Zm3.1-17c0-1.4-.3-3-1.2-3-1.2 0-1.2 2.5-1.2 3.2v8.4a22 22 0 0 0 2.4-8.6Z"/><path d="M78 30.6c-1.5 0-2.4-1-2.4-2.8v-3.7c0-1.4-.6-1.5-1.1-1.5-2 0-3.5 1.8-4.9 3.7V30c0 .4-.2.6-.5.6-.4 0-.6-.2-.6-.6v-5.2l-1.1 1.9-.5.2a.5.5 0 0 1-.5-.5V26l2-3.5v-9.2c0-3 .7-4.3 2.2-4.3 1.3 0 2.1 1.4 2.1 3.9 0 4-2.7 9.3-3.1 10v1.7c1.3-1.6 2.8-3.1 4.9-3.1 1.4 0 2.2 1 2.2 2.6v3.6c0 1.3.4 1.8 1.2 1.8 1.5 0 2.7-2.1 3.1-2.8l.4-.6c.1-.3.4-.3.4-.3.4 0 .6.3.6.6v.2l-.3.5c-.9 1.4-2.2 3.5-4.1 3.5Zm-3.5-8.5c.7 0 1.6.4 1.6 2v3.7c0 1.6.6 2.4 1.8 2.4 1.8 0 3-2 3.8-3.3l.2-.5v-.1h-.2l-.3.6c-.4.7-1.8 3-3.5 3-1.4 0-1.6-1.2-1.6-2.2v-3.6c0-1.4-.6-2.2-1.8-2.2-2.1 0-3.6 1.7-5 3.4l-.4.5v-3a25 25 0 0 0 3.2-10c0-1-.2-3.4-1.7-3.4-.8 0-1.7.5-1.7 3.9v9.4l-2 3.5-.1.2h.2l2-3.3v7h.2v-4c1.5-2 3.1-4 5.3-4Zm-5.4.3V13c0-.8 0-3.4 1.5-3.4.3 0 1.5.2 1.5 3.2 0 3.6-2.1 7.9-2.6 8.7l-.4.8ZM70.6 10c-.5 0-1 .5-1 3v7.4a21 21 0 0 0 2-7.6c0-1.4-.3-2.8-1-2.8Zm16.1 20.1L80.4 9.8v-.3c0-.2 0-.3.3-.3 0 0 .2 0 .3.3l6 19.7 5-10.7c0-.1 0-.3.3-.3s.3.2.4.3l5 10.7 6-19.7c0-.3.2-.3.3-.3.2 0 .3.1.3.3v.3L98 30c0 .2-.2.3-.3.3-.2 0-.3 0-.4-.3l-5-10.9-5 11c0 .1-.1.2-.3.2-.2 0-.3-.1-.3-.3Z"/><path d="M97.6 30.6c-.3 0-.4-.2-.5-.4l-4.8-10.4-4.8 10.4c0 .2-.2.4-.5.4-.2 0-.4 0-.5-.4L80.2 9.9v-.4c0-.3.1-.5.5-.5.2 0 .4.1.5.4L87 28.6l4.6-10.2c.1-.1.3-.4.6-.4.4 0 .5.3.6.4l4.7 10.2 5.9-19.2c0-.3.3-.4.5-.4.3 0 .5.2.5.5v.3l-6.3 20.4c-.2.3-.4.4-.6.4Zm-5.3-11.9L97.5 30l.1.2.2-.1L104 9.7l.1-.2h-.2L97.7 30l-5.2-11.3-.2-.2-.2.2L87 30 80.8 9.5h-.3v.2h.1l6.3 20.4h.2l5.2-11.4Zm10.8 7.3c0-2.5 1.8-4.3 4.5-4.3 1.8 0 3.3.9 4 2.3.8-.2 1.6-.5 2.2-1h.4c.2 0 .3.1.3.3 0 .1 0 .2-.2.3-.9.5-1.7.9-2.5 1l.2 1.4c0 2.6-1.8 4.4-4.4 4.4-2.7 0-4.5-1.8-4.5-4.4Zm8.2 0c0-.4 0-.8-.2-1.2h-1c-1.6 0-3-.5-3-1.9v-.5c-2 .2-3.3 1.6-3.3 3.6 0 2.2 1.5 3.7 3.8 3.7 2.2 0 3.7-1.5 3.7-3.7Zm-.5-1.9a3.3 3.3 0 0 0-2.5-1.7c-.4 0-.6.2-.6.5 0 .8.8 1.3 2.4 1.3h.7Z"/><path d="M107.6 30.6c-2.8 0-4.7-1.8-4.7-4.6 0-2.7 1.9-4.5 4.7-4.5 1.8 0 3.3.8 4 2.3.8-.2 1.5-.5 2.1-.9l.5-.2c.3 0 .5.3.5.6 0 .2 0 .4-.3.5-.7.4-1.5.8-2.4 1l.2 1.2c0 2.8-1.9 4.6-4.6 4.6Zm0-8.7c-2.5 0-4.2 1.7-4.2 4.1 0 2.5 1.7 4.2 4.2 4.2s4.2-1.7 4.2-4.2l-.2-1.3-.1-.2h.2c.9-.3 1.7-.6 2.5-1.1v-.2h-.3a8 8 0 0 1-2.3 1l-.2.1v-.2c-.7-1.4-2-2.2-3.8-2.2Zm0 8c-2.4 0-4-1.6-4-3.9 0-2 1.4-3.6 3.5-3.8h.4l-.2.3v.4c0 1.3 1.5 1.7 2.8 1.7h1.1l.1.1.2 1.4c0 2.2-1.6 3.9-4 3.9Zm-.8-7.2A3.3 3.3 0 0 0 104 26c0 2.1 1.5 3.5 3.6 3.5 2 0 3.5-1.4 3.5-3.5 0-.3 0-.7-.2-1h-.8c-2 0-3.3-.8-3.3-2v-.3Zm3.3 1.7c-2.3 0-2.6-1-2.6-1.5 0-.4.3-.7.7-.7h.2c1.2.2 2 .8 2.6 1.8l.1.3h-1Zm-1.9-1.8c-.2 0-.3.2-.3.3 0 1 1.4 1 2.2 1h.3a3.1 3.1 0 0 0-2-1.3h-.2Z"/><path d="M117 28c0-1.2.3-2.3.6-3.2l.3-1.3c0-.4-.3-.8-2.2-.9a9.5 9.5 0 0 1-1.5 1c-.2 0-.4-.1-.4-.3 0 0 0-.2.2-.3.4-.3.8-.5 1-.8a2 2 0 0 1-.3-1c0-.8.6-1.3 1.1-1.3.5 0 1.1.3 1.1 1 0 .5-.3 1-.6 1.2 1.8.1 2.2.6 2.2 1.3 0 .4 0 .8-.2 1.3-.3.9-.5 1.8-.5 3.3 0 1.4.8 1.7 1.7 1.7 1.7 0 3-1.6 3.8-3l.3-.5c0-.2.2-.2.3-.2.2 0 .3.2.3.4v.1l-.3.5c-.8 1.5-2.4 3.4-4.4 3.4-1.3 0-2.4-.8-2.4-2.4Zm-.7-7c0-.2-.2-.4-.4-.4-.3 0-.5.2-.5.5l.2.7c.3-.2.7-.5.7-.8Z"/><path d="M119.5 30.6c-1.6 0-2.6-1-2.6-2.6 0-1 .1-2 .5-3.3l.3-1.2c0-.5-1.2-.6-2-.7l-.8.7-.7.3a.5.5 0 0 1-.6-.5c0-.2.1-.4.3-.5l.9-.6c-.3-.3-.4-.7-.4-1 0-1 .8-1.5 1.4-1.5.7 0 1.3.4 1.3 1.2 0 .4-.1.7-.3 1 1.4.2 2 .7 2 1.5l-.3 1.4a10 10 0 0 0-.5 3.2c0 1 .4 1.5 1.5 1.5 2 0 3.2-2.2 3.6-2.8l.3-.6c.2-.3.4-.3.5-.3.3 0 .5.3.5.6v.2l-.3.5c-.9 1.6-2.5 3.5-4.6 3.5Zm-3.9-8.2h.1c1.7 0 2.4.4 2.4 1l-.3 1.5a11 11 0 0 0-.5 3c0 1.4.8 2.3 2.2 2.3 2 0 3.4-1.8 4.2-3.3l.3-.5-.1-.1h-.1l-.3.6c-1.5 2.7-3.3 3-4 3-1.3 0-2-.6-2-2s.3-2.4.6-3.3l.2-1.2c0-.4-.1-1-2-1.1h-.6l.5-.4c.2-.2.5-.6.5-1 0-.6-.5-.8-.9-.8a1 1 0 0 0-1 1c0 .4.2.7.4 1l.2.1-.2.2a14.1 14.1 0 0 1-1.1.9v.1l.5-.3 1-.7Zm0-.3-.1-.1c-.2-.2-.3-.5-.3-.9s.2-.7.7-.7c.3 0 .6.3.6.6 0 .5-.6 1-.8 1h-.1Zm.3-1.3c-.3 0-.3.2-.3.3v.4c.3-.2.4-.4.4-.5l-.1-.2Z"/><path d="M126 30v-6.6l-1.8 3.1c-.1.2-.2.2-.3.2-.2 0-.4-.1-.4-.3l.1-.3 2.4-4v-8.8c0-3 .6-4 1.9-4 1.5 0 1.9 2 1.9 3.6 0 3.2-2 7.4-3.2 9.3v1.6a3.6 3.6 0 0 1 3.2-2c1 0 2 .3 2 1.4 0 1.4-1.7 2.2-3.2 2.6 1.1.5 1.7 1.5 2.2 2.3.5.9 1 1.6 1.9 1.6 1.4 0 2.6-2 3.1-3l.4-.5c0-.2.2-.2.3-.2.2 0 .3.2.3.4v.1l-.4.6c-.8 1.4-2 3.3-3.7 3.3-1.3 0-1.9-.9-2.4-1.9-.7-1.1-1.4-2.4-3.6-2.5v4c0 .3-.2.4-.4.4s-.3-.1-.3-.3Zm3-17c0-1.4-.3-3-1.3-3-1.2 0-1.2 2.5-1.2 3.2V21c.6-1 2.5-4.8 2.5-8Zm2 10.3c0-.6-.6-.8-1.3-.8-1.3 0-2.6 1-3.2 2.8l.8.1c1.3 0 3.7-.9 3.7-2.1Z"/><path d="M132.7 30.6c-1.5 0-2-1-2.6-2-.6-1-1.3-2.2-3.3-2.4v3.9c0 .3-.2.5-.5.5a.5.5 0 0 1-.6-.5v-5.9l-1.3 2.5-.5.2a.5.5 0 0 1-.6-.5l.2-.4 2.2-4v-8.7c0-3 .7-4.3 2.2-4.3 1.3 0 2 1.4 2 3.9 0 3-1.6 6.9-3 9.4v.7c1-1.4 2.4-1.5 3-1.5 1 0 2.1.4 2.1 1.7 0 1.1-1 2-2.9 2.6A6 6 0 0 1 131 28c.5 1 1 1.5 1.7 1.5 1.3 0 2.5-2 3-2.8l.3-.6c.1-.3.4-.3.5-.3.3 0 .5.3.5.6v.2l-.4.6c-.6 1.1-1.9 3.4-4 3.4Zm-6.3-4.8h.3c2.3.1 3.1 1.4 3.8 2.6.5 1 1 1.8 2.2 1.8 1.5 0 2.6-1.5 3.5-3.2l.4-.6-.1-.1h-.2l-.3.6c-.5.9-1.7 3-3.3 3-1.1 0-1.6-.9-2-1.7a5.2 5.2 0 0 0-2.2-2.2l-.6-.3.6-.2c1.4-.3 3-1 3-2.3 0-1.2-1.4-1.3-1.7-1.3-.5 0-2 .2-3 2l-.4.8v-2.5c1.5-2.5 3.1-6.5 3.1-9.3 0-1-.1-3.5-1.6-3.5-.9 0-1.7.5-1.7 3.9V22l-2.4 4v.3h.2l2.2-3.8V30h.2v-4.3Zm1-.3h-1V25c.6-1.8 1.9-3 3.4-3 1 0 1.5.4 1.5 1 0 1.6-2.5 2.4-4 2.4Zm-.5-.4h.5c.6 0 1.5-.2 2.3-.6.7-.4 1.2-.8 1.2-1.3s-.6-.6-1-.6c-1.4 0-2.5 1-3 2.5Zm-.5-3.4v-8.6c0-.8 0-3.4 1.4-3.4.4 0 1.5.2 1.5 3.2 0 3.3-2 7.3-2.5 8l-.4.8Zm1.4-11.6c-.4 0-1 .5-1 3V20a17 17 0 0 0 2-7.1c0-1.4-.2-2.8-1-2.8Z"/></g><defs><clipPath id="a"><path fill="#fff" d="M0 0h137v32H0z"/></clipPath></defs></svg>